<!--?xml version="1.0" standalone="no"?-->
              <svg id="sw-js-blob-svg" viewBox="0 0 100 100" xmlns="http://www.w3.org/2000/svg" version="1.1">
                    <defs> 
                        <linearGradient id="sw-gradient" x1="0" x2="1" y1="1" y2="0">
                            <stop id="stop1" stop-color="rgba(248, 117, 55, 1)" offset="0%"></stop>
                            <stop id="stop2" stop-color="rgba(251, 168, 31, 1)" offset="100%"></stop>
                        </linearGradient>
                    </defs>
                <path fill="url(#sw-gradient)" d="M19.7,-34.3C25.7,-30.7,30.8,-25.8,33.8,-19.8C36.8,-13.8,37.6,-6.9,38.2,0.4C38.9,7.7,39.4,15.4,36.6,21.5C33.7,27.7,27.6,32.4,20.9,36C14.3,39.6,7.1,42.1,0,42.1C-7.2,42.2,-14.4,39.9,-20,35.7C-25.7,31.5,-29.7,25.5,-33.8,19.2C-37.9,13,-42.2,6.5,-40.3,1.1C-38.4,-4.3,-30.2,-8.5,-25,-12.9C-19.8,-17.3,-17.5,-21.9,-13.8,-26.8C-10.2,-31.7,-5.1,-37,0.9,-38.5C6.9,-40.1,13.8,-37.9,19.7,-34.3Z" width="100%" height="100%" transform="translate(50 50)" stroke-width="0" style="transition: all 0.3s ease 0s;" stroke="url(#sw-gradient)"></path>
              </svg>